<?xml version="1.0" standalone="no"?>
<!DOCTYPE svg PUBLIC "-//W3C//DTD SVG 1.1//EN" "http://www.w3.org/Graphics/SVG/1.1/DTD/svg11.dtd">

<svg style="stroke-linejoin:round; stroke:black; stroke-width:0.5pt; text-anchor:middle; fill:none" xmlns="http://www.w3.org/2000/svg" font-family="Helvetica, Arial, FreeSans, Sans, sans, sans-serif" height="4000px" width="4000px" version="1.1" xmlns:xlink="http://www.w3.org/1999/xlink" viewBox="0 0 100 100">

<g>

<path d="M3.5 16.4097L3.7139 17.1817L4.39258 17.7812L4.91198 17.9071L5.60545 17.7821L6.22515 17.2752" />

<path stroke="black" d="M3.5 5L3.5 16.4097" />

<path stroke="black" d="M6.22515 17.2752L14.2584 5.90322" />

<path stroke="black" d="M6.5 5L6.5 12.7863L11.8081 4.17231" />

<path stroke-width="0.2" d="M4.7 4.7L4.9467 4.5791L5.30861 4.70886L5.42426 4.99737L5.24165 5.34872L4.82452 5.38627L4.57574 5.00043L4.7 4.7Z" />

<path stroke-width="0.2" d="M4.7 16.1097L5.03972 15.9873L5.36692 16.1967L5.41416 16.5018L5.18118 16.7934L4.86402 16.8116L4.57687 16.3787L4.7 16.1097Z" />

<path stroke-width="0.2" d="M12.7333 4.73777L13.0326 4.6135L13.3584 4.76518L13.4221 5.20751L13.146 5.44679L12.7733 5.37305L12.6091 5.04604L12.7333 4.73777Z" />

<path d="M3.5 5L3.57536 4.53054L4.05207 3.83749L4.6259 3.5474L5.53578 3.59895L6.28608 4.22798L6.5 5" />

<path d="M11.8081 4.17231L12.0972 3.86573L12.7761 3.55998L13.6963 3.69227L14.2922 4.22217L14.4971 4.71039L14.4114 5.63003L14.2584 5.90322" />

<path d="M22.9925 16.4097L23.339 17.3687L23.9334 17.8017L24.57 17.9077L24.9372 17.8423L25.7176 17.2752" />

<path stroke="black" d="M22.9925 5L22.9925 16.4097" />

<path stroke="black" d="M25.7176 17.2752L33.7509 5.90322" />

<path stroke="black" d="M25.9925 5L25.9925 12.7863L31.3006 4.17231" />

<path stroke-width="0.2" d="M24.1925 4.7L24.5118 4.57618L24.8887 4.84834L24.9156 5.03056L24.715 5.36121L24.2403 5.34119L24.0719 5.05607L24.1925 4.7Z" />

<path stroke-width="0.2" d="M24.1925 16.1097L24.5013 15.9855L24.8275 16.1495L24.9118 16.4745L24.7514 16.7458L24.2519 16.7592L24.0808 16.5122L24.1925 16.1097Z" />

<path stroke-width="0.2" d="M32.2258 4.73776L32.5615 4.61501L32.8556 4.77088L32.8524 5.30854L32.4782 5.45935L32.1385 5.21113L32.1426 4.85569L32.2258 4.73776Z" />

<path d="M22.9925 5L23.1582 4.31461L23.4881 3.88593L23.7108 3.71976L24.4873 3.50001L25.3377 3.7608L25.9103 4.51028L25.9925 5" />

<path d="M31.3006 4.17231L31.9143 3.66806L32.705 3.54851L33.3538 3.78704L33.8317 4.29987L34.0113 5.2455L33.7509 5.90322" />

<path d="M42.4849 18.9232L42.6142 19.5324L42.9708 20.0284L43.3663 20.2897L44.0046 20.4231L44.8446 20.1524" />

<path stroke="black" d="M42.4849 5L42.4849 18.9232" />

<path stroke="black" d="M44.8446 20.1524L51.4277 15.5482" />

<path stroke="black" d="M45.4849 5L45.4849 16.3741L49.7083 13.0898" />

<path stroke-width="0.2" d="M43.6849 4.7L43.9578 4.5766L44.3709 4.82377L44.3142 5.26751L44.0191 5.42289L43.5979 5.17371L43.6108 4.79994L43.6849 4.7Z" />

<path stroke-width="0.2" d="M43.6849 18.6232L43.9973 18.4991L44.3405 18.6918L44.3986 19.0176L44.078 19.3371L43.7238 19.2576L43.5651 18.8618L43.6849 18.6232Z" />

<path stroke-width="0.2" d="M50.268 14.019L50.7008 13.9161L50.8995 14.0542L50.9829 14.408L50.7861 14.683L50.4082 14.7121L50.1626 14.4442L50.268 14.019Z" />

<path d="M42.4849 5L42.6357 4.34459L43.0431 3.83253L43.7308 3.52169L44.5243 3.60033L45.0585 3.95236L45.3899 4.47454L45.4849 5" />

<path d="M49.7083 13.0898L50.4501 12.8237L51.1727 12.9463L51.6389 13.2687L51.9925 13.8492L52.0585 14.4877L51.8996 15.0097L51.4277 15.5482" />

<path d="M61.9774 18.9232L62.1428 19.6079L62.6533 20.1765L63.7265 20.4024L64.3371 20.1524" />

<path stroke="black" d="M61.9774 5L61.9774 18.9232" />

<path stroke="black" d="M64.3371 20.1524L70.9202 15.5482" />

<path stroke="black" d="M64.9774 5L64.9774 16.3741L69.2008 13.0898" />

<path stroke-width="0.2" d="M63.1774 4.7L63.4948 4.57609L63.8426 4.7841L63.9013 4.98266L63.7685 5.30865L63.4249 5.421L63.0748 5.13395L63.0797 4.85228L63.1774 4.7Z" />

<path stroke-width="0.2" d="M63.1774 18.6232L63.5444 18.5043L63.866 18.7528L63.8969 18.9864L63.6974 19.286L63.4242 19.3441L63.0734 19.0528L63.0667 18.8169L63.1774 18.6232Z" />

<path stroke-width="0.2" d="M69.7605 14.019L70.1015 13.8968L70.4819 14.2701L70.3053 14.6655L69.916 14.718L69.6498 14.4255L69.7605 14.019Z" />

<path d="M61.9774 5L62.2842 4.09104L62.8456 3.63955L63.4023 3.50188L64.1572 3.66289L64.5822 3.98545L64.8344 4.36075L64.9774 5" />

<path d="M69.2008 13.0898L69.9745 12.8215L70.3705 12.8514L71.0082 13.1564L71.3525 13.557L71.5438 14.0957L71.5427 14.5492L71.3528 15.0806L70.9202 15.5482" />

<path d="M3.5 40.8798L3.62136 41.4708L4.33085 42.2222L5.00705 42.3797" />

<path stroke="black" d="M3.5 32.8464L3.5 40.8798" />

<path stroke="black" d="M5.00705 42.3797L16.4166 42.3261" />

<path stroke="black" d="M6.5 32.8464L6.5 39.3727L16.4025 39.3261" />

<path stroke-width="0.2" d="M4.7 32.5464L5.01804 32.4225L5.30254 32.5489L5.37041 33.0533L5.14006 33.2469L4.75268 33.1911L4.5782 32.892L4.7 32.5464Z" />

<path stroke-width="0.2" d="M4.7 40.5798L5.07093 40.4615L5.3859 40.7035L5.34916 41.1208L5.1131 41.2887L4.87797 41.2861L4.57614 40.8984L4.7 40.5798Z" />

<path stroke-width="0.2" d="M16.1096 40.5261L16.5262 40.4182L16.8264 40.7467L16.7161 41.1195L16.4497 41.2485L16.0748 41.0868L16.0551 40.593L16.1096 40.5261Z" />

<path d="M3.5 32.8464L3.66426 32.1639L4.21541 31.5679L4.90077 31.3497L5.63959 31.4896L6.31365 32.1223L6.5 32.8464" />

<path d="M16.4025 39.3261L17.1561 39.5251L17.6901 40.0449L17.9091 40.789L17.7986 41.3924L17.3375 42.0047L16.78 42.2797L16.4166 42.3261" />

<path d="M22.9925 40.8798L23.1142 41.4716L23.841 42.2309L24.4995 42.3797" />

<path stroke="black" d="M22.9925 32.8464L22.9925 40.8798" />

<path stroke="black" d="M24.4995 42.3797L35.9091 42.3261" />

<path stroke="black" d="M25.9925 32.8464L25.9925 39.3727L35.895 39.3261" />

<path stroke-width="0.2" d="M24.1925 32.5464L24.5805 32.4314L24.8614 32.6368L24.9149 32.886L24.7122 33.2093L24.2628 33.2031L24.1353 33.0753L24.1221 32.6395L24.1925 32.5464Z" />

<path stroke-width="0.2" d="M24.1925 40.5798L24.4024 40.4652L24.8709 40.688L24.8003 41.1717L24.6153 41.2859L24.2904 41.2528L24.0742 40.9506L24.1925 40.5798Z" />

<path stroke-width="0.2" d="M35.6021 40.5261L35.9784 40.4088L36.2941 40.664L36.2956 40.9846L36.1797 41.1469L35.8439 41.2464L35.5587 41.0753L35.5265 40.6288L35.6021 40.5261Z" />

<path d="M22.9925 32.8464L23.1081 32.2689L23.4254 31.7922L24.0708 31.4069L25.0748 31.464L25.5715 31.8045L25.9466 32.4782L25.9925 32.8464" />

<path d="M35.895 39.3261L36.8054 39.6286L37.283 40.2405L37.3599 41.1794L37.0759 41.7599L36.4402 42.2263L35.9091 42.3261" />

</g>

</svg>

