<?xml version="1.0" standalone="no"?>
<!DOCTYPE svg PUBLIC "-//W3C//DTD SVG 1.1//EN" "http://www.w3.org/Graphics/SVG/1.1/DTD/svg11.dtd">

<svg style="stroke-linejoin:round; stroke:black; stroke-width:0.5pt; text-anchor:middle; fill:none" xmlns="http://www.w3.org/2000/svg" font-family="Helvetica, Arial, FreeSans, Sans, sans, sans-serif" height="4000px" width="4000px" version="1.1" xmlns:xlink="http://www.w3.org/1999/xlink" viewBox="0 0 100 100">

<g>

<path d="M3.5 11.6444L3.77507 12.8993" />

<path stroke="black" d="M3.5 5L3.5 11.6444" />

<path stroke="black" d="M3.77507 12.8993L6.55824 18.9427" />

<path stroke="black" d="M6.5 5L6.5 11.6444L9.28317 17.6878" />

<path stroke-width="0.2" d="M4.7 4.7L5.21978 4.6371L5.41836 4.92944L5.33843 5.25586L4.86705 5.4029L4.6383 5.22176L4.58739 4.90123L4.7 4.7Z" />

<path stroke-width="0.2" d="M4.7 11.5171L5.14069 11.4168L5.41597 11.7336L5.3291 12.0848L5.01538 12.241L4.67175 12.0859L4.57624 11.7964L4.7 11.5171Z" />

<path stroke-width="0.2" d="M7.48317 17.5605L7.93354 17.4638L8.18287 17.7183L8.14858 18.0761L7.75586 18.2839L7.52576 18.1978L7.36585 17.937L7.48317 17.5605Z" />

<path d="M3.5 5L3.61084 4.4341L4.01269 3.87074L4.53249 3.57472L5.3471 3.54071L5.87674 3.7829L6.40936 4.48647L6.5 5" />

<path d="M9.28317 17.6878L9.4195 18.3754L9.31237 18.875L8.86387 19.4817L8.23245 19.7825L7.5019 19.7556L6.74903 19.2519L6.55824 18.9427" />

<path d="M14.719 11.6444L14.9941 12.8993" />

<path stroke="black" d="M14.719 5L14.719 11.6444" />

<path stroke="black" d="M14.9941 12.8993L17.7773 18.9427" />

<path stroke="black" d="M17.719 5L17.719 11.6444L20.5022 17.6878" />

<path stroke-width="0.2" d="M15.919 4.7L16.2008 4.57613L16.5632 4.75183L16.6305 5.10341L16.4136 5.37704L16.0307 5.38019L15.8011 4.92683L15.919 4.7Z" />

<path stroke-width="0.2" d="M15.919 11.5171L16.3307 11.4078L16.5714 11.5808L16.6406 11.8645L16.3764 12.211L15.9564 12.1502L15.8099 11.7049L15.919 11.5171Z" />

<path stroke-width="0.2" d="M18.7022 17.5605L19.1598 17.4666L19.4037 17.7234L19.3248 18.1361L19.1132 18.27L18.7479 18.2001L18.5914 17.9666L18.7022 17.5605Z" />

<path d="M14.719 5L14.8891 4.3062L15.3365 3.78712L16.1284 3.50274L16.7461 3.59563L17.3747 4.04372L17.6544 4.56442L17.719 5" />

<path d="M20.5022 17.6878L20.6316 18.4711L20.387 19.1486L20.0392 19.5157L19.2149 19.8134L18.5625 19.6998L17.9583 19.2396L17.7773 18.9427" />

<path d="M25.9381 11.2839L26.52 13.0595L26.8015 13.3898" />

<path stroke="black" d="M25.9381 5L25.9381 11.2839" />

<path stroke="black" d="M26.8015 13.3898L29.828 16.4605" />

<path stroke="black" d="M28.9381 5L28.9381 11.2839L31.9646 14.3546" />

<path stroke-width="0.2" d="M27.1381 4.7L27.4024 4.57724L27.693 4.66085L27.8611 5.03232L27.6657 5.35805L27.3953 5.4221L27.0558 5.18403L27.0626 4.80257L27.1381 4.7Z" />

<path stroke-width="0.2" d="M27.1381 11.3535L27.5274 11.2388L27.8312 11.4939L27.7902 11.8902L27.5725 12.0559L27.3536 12.0693L27.0319 11.776L27.1381 11.3535Z" />

<path stroke-width="0.2" d="M30.1646 14.4242L30.5073 14.3021L30.7858 14.4469L30.868 14.8559L30.5723 15.1346L30.2502 15.0903L30.0406 14.7363L30.1646 14.4242Z" />

<path d="M25.9381 5L26.0635 4.39958L26.6013 3.75512L27.0926 3.54032L28.1023 3.65509L28.6009 4.05246L28.8997 4.66277L28.9381 5" />

<path d="M31.9646 14.3546L32.2944 14.8641L32.3951 15.3479L32.1871 16.1717L31.728 16.6559L30.8852 16.9075L30.1573 16.7129L29.828 16.4605" />

<path d="M37.1571 11.2839L37.5384 12.7475L38.0205 13.3898" />

<path stroke="black" d="M37.1571 5L37.1571 11.2839" />

<path stroke="black" d="M38.0205 13.3898L41.0471 16.4605" />

<path stroke="black" d="M40.1571 5L40.1571 11.2839L43.1837 14.3546" />

<path stroke-width="0.2" d="M38.3571 4.7L38.9235 4.66976L39.078 4.94683L38.9876 5.26603L38.7199 5.41959L38.3496 5.29231L38.2385 5.06896L38.3571 4.7Z" />

<path stroke-width="0.2" d="M38.3571 11.3535L38.5573 11.2412L38.9578 11.3542L39.0705 11.5578L38.984 11.924L38.5594 12.0664L38.2478 11.7652L38.3571 11.3535Z" />

<path stroke-width="0.2" d="M41.3837 14.4242L41.7326 14.3028L42.1002 14.6435L42.031 14.9679L41.7384 15.1449L41.4688 15.09L41.26 14.7015L41.3837 14.4242Z" />

<path d="M37.1571 5L37.3368 4.28819L38.0795 3.61569L38.686 3.50028L39.2658 3.62904L39.8251 4.05884L40.1352 4.74418L40.1571 5" />

<path d="M43.1837 14.3546L43.4733 14.7703L43.6097 15.5385L43.5007 15.9829L43.0899 16.5478L42.2285 16.9033L41.6195 16.8232L41.0471 16.4605" />

<path d="M48.3762 8.99574L49.0814 10.9281" />

<path stroke="black" d="M48.3762 5L48.3762 8.99574" />

<path stroke="black" d="M49.0814 10.9281L53.3133 15.9538" />

<path stroke="black" d="M51.3762 5L51.3762 8.99574L55.6081 14.0214" />

<path stroke-width="0.2" d="M49.5762 4.7L49.8185 4.57968L50.2409 4.78322L50.2808 5.12753L50.1213 5.34628L49.6617 5.36605L49.4804 5.15294L49.5762 4.7Z" />

<path stroke-width="0.2" d="M49.5762 9.01152L49.932 8.89094L50.2556 9.12166L50.2558 9.501L49.9777 9.72346L49.5757 9.61104L49.5139 9.09071L49.5762 9.01152Z" />

<path stroke-width="0.2" d="M53.8081 14.0372L54.1983 13.9226L54.4768 14.1273L54.5006 14.4983L54.2091 14.7493L53.8836 14.6972L53.7305 14.1437L53.8081 14.0372Z" />

<path d="M48.3762 5L48.5137 4.37258L48.8207 3.93421L49.1948 3.6637L50.1413 3.52362L50.8947 3.89886L51.2252 4.34409L51.3762 5" />

<path d="M55.6081 14.0214L55.9228 14.6527L55.8944 15.4285L55.5326 16.0369L55.0302 16.3753L54.0773 16.4378L53.4673 16.1115L53.3133 15.9538" />

<path d="M59.5952 8.99574L59.9429 10.3976L60.3004 10.9281" />

<path stroke="black" d="M59.5952 5L59.5952 8.99574" />

<path stroke="black" d="M60.3004 10.9281L64.5323 15.9538" />

<path stroke="black" d="M62.5952 5L62.5952 8.99574L66.8271 14.0214" />

<path stroke-width="0.2" d="M60.7952 4.7L61.2844 4.62023L61.5143 4.93411L61.4304 5.26007L61.0386 5.42047L60.6999 5.15414L60.7952 4.7Z" />

<path stroke-width="0.2" d="M60.7952 9.01152L61.2785 8.9289L61.5193 9.29782L61.3681 9.63634L61.1993 9.72281L60.8686 9.67017L60.6733 9.35606L60.7952 9.01152Z" />

<path stroke-width="0.2" d="M65.0271 14.0372L65.3302 13.9129L65.666 14.0819L65.7514 14.3412L65.6385 14.6253L65.2511 14.7546L64.9108 14.4187L65.0271 14.0372Z" />

<path d="M59.5952 5L59.843 4.17426L60.3397 3.70418L61.1218 3.50024L61.8533 3.70565L62.4082 4.27469L62.5952 5" />

<path d="M66.8271 14.0214L67.1318 14.6115L67.1095 15.4412L66.6384 16.1413L65.989 16.4554L65.2189 16.4151L64.5323 15.9538" />

<path d="M3.5 27.2659L3.87366 28.7159L4.25208 29.2526" />

<path stroke="black" d="M3.5 21.0272L3.5 27.2659" />

<path stroke="black" d="M4.25208 29.2526L9.55887 35.2572" />

<path stroke="black" d="M6.5 21.0272L6.5 27.2659L11.8068 33.2706" />

<path stroke-width="0.2" d="M4.7 20.7272L5.12274 20.6211L5.37528 20.8293L5.39307 21.1869L5.04666 21.4489L4.65483 21.2739L4.5895 20.92L4.7 20.7272Z" />

<path stroke-width="0.2" d="M4.7 27.2973L5.1432 27.198L5.37598 27.4008L5.39601 27.7496L5.22437 27.9574L4.6544 27.8434L4.59135 27.4833L4.7 27.2973Z" />

<path stroke-width="0.2" d="M10.0068 33.302L10.3823 33.1845L10.6933 33.4269L10.6765 33.8101L10.2975 34.0261L10.0133 33.9084L9.88265 33.6122L10.0068 33.302Z" />

<path d="M3.5 21.0272L3.7258 20.2357L4.16123 19.7836L4.69622 19.5583L5.74808 19.7271L6.21426 20.1465L6.45079 20.6461L6.5 21.0272" />

<path d="M11.8068 33.2706L12.0861 33.7339L12.1601 34.5243L11.961 35.0489L11.3061 35.6283L10.6209 35.7626L10.1083 35.6495L9.55887 35.2572" />

<path d="M14.719 27.2659L15.083 28.6981L15.4711 29.2526" />

<path stroke="black" d="M14.719 21.0272L14.719 27.2659" />

<path stroke="black" d="M15.4711 29.2526L20.7779 35.2572" />

<path stroke="black" d="M17.719 21.0272L17.719 27.2659L23.0258 33.2706" />

<path stroke-width="0.2" d="M15.919 20.7272L16.272 20.6063L16.5826 20.8085L16.629 21.1363L16.287 21.446L15.9363 21.3435L15.7975 20.9792L15.919 20.7272Z" />

<path stroke-width="0.2" d="M15.919 27.2973L16.3175 27.1847L16.6051 27.4214L16.4747 27.9359L16.0793 27.9979L15.8147 27.7259L15.8086 27.49L15.919 27.2973Z" />

<path stroke-width="0.2" d="M21.2258 33.302L21.6304 33.1908L21.8881 33.3812L21.9253 33.745L21.6653 34.0027L21.2731 33.9427L21.1178 33.7181L21.2258 33.302Z" />

<path d="M14.719 21.0272L15.0395 20.1005L15.4847 19.7192L16.2707 19.5281L16.8046 19.6462L17.2333 19.9221L17.6159 20.4805L17.719 21.0272" />

<path d="M23.0258 33.2706L23.3524 33.8819L23.3408 34.6876L22.9179 35.3674L22.0491 35.7567L21.4559 35.6961L20.7779 35.2572" />

<path d="M25.9381 28.6784L26.2669 30.0439L26.7809 30.7632" />

<path stroke="black" d="M25.9381 21.0272L25.9381 28.6784" />

<path stroke="black" d="M26.7809 30.7632L32.0537 36.2188" />

<path stroke="black" d="M28.9381 21.0272L28.9381 28.6784L34.2108 34.1339" />

<path stroke-width="0.2" d="M27.1381 20.7272L27.5271 20.6124L27.7765 20.7713L27.851 21.1245L27.519 21.4437L27.0633 21.226L27.0184 20.9651L27.1381 20.7272Z" />

<path stroke-width="0.2" d="M27.1381 28.7408L27.4023 28.6181L27.7314 28.7343L27.8594 29.0909L27.6067 29.4301L27.1925 29.3868L27.0143 29.0614L27.1381 28.7408Z" />

<path stroke-width="0.2" d="M32.4108 34.1963L32.799 34.0814L33.0703 34.271L33.1187 34.6133L32.8417 34.8999L32.4424 34.8249L32.2896 34.4461L32.4108 34.1963Z" />

<path d="M25.9381 21.0272L26.2137 20.1607L26.5135 19.846L27.0311 19.5835L27.6141 19.5376L28.4375 19.9087L28.8588 20.546L28.9381 21.0272" />

<path d="M34.2108 34.1339L34.6228 35.0081L34.5271 35.728L34.0897 36.331L33.3349 36.6626L32.8474 36.6491L32.0537 36.2188" />

<path d="M37.1571 28.6784L37.5133 30.0961L38 30.7632" />

<path stroke="black" d="M37.1571 21.0272L37.1571 28.6784" />

<path stroke="black" d="M38 30.7632L43.2727 36.2188" />

<path stroke="black" d="M40.1571 21.0272L40.1571 28.6784L45.4299 34.1339" />

<path stroke-width="0.2" d="M38.3571 20.7272L38.7186 20.6074L39.0621 20.9006L39.0101 21.2627L38.6024 21.4479L38.2868 21.2343L38.2472 20.9177L38.3571 20.7272Z" />

<path stroke-width="0.2" d="M38.3571 28.7408L38.7353 28.6238L38.9896 28.7772L39.0378 29.2281L38.8592 29.4139L38.2956 29.2628L38.2367 29.0974L38.3571 28.7408Z" />

<path stroke-width="0.2" d="M43.6299 34.1964L43.9478 34.0725L44.255 34.2238L44.3484 34.5661L44.055 34.9018L43.7586 34.8845L43.525 34.6232L43.6299 34.1964Z" />

<path d="M37.1571 21.0272L37.3163 20.3548L37.9426 19.7083L38.8106 19.5351L39.473 19.7685L39.9462 20.2601L40.1571 21.0272" />

<path d="M45.4299 34.1339L45.8153 34.8498L45.8334 35.4073L45.5993 36.0085L45.1677 36.4347L44.5576 36.6621L43.8282 36.5822L43.2727 36.2188" />

<path d="M48.3762 28.4882L48.5327 29.4447" />

<path stroke="black" d="M48.3762 21.0272L48.3762 28.4882" />

<path stroke="black" d="M48.5327 29.4447L50.5639 35.4833" />

<path stroke="black" d="M51.3762 21.0272L51.3762 28.4882L53.4074 34.5268" />

<path stroke-width="0.2" d="M49.5762 20.7272L49.9337 20.6069L50.2484 20.8236L50.2894 21.1235L49.9896 21.436L49.5932 21.3433L49.4541 21.0702L49.5762 20.7272Z" />

<path stroke-width="0.2" d="M49.5762 28.3144L49.9175 28.1921L50.257 28.4274L50.2817 28.7392L49.9337 29.0347L49.5651 28.9028L49.4696 28.4932L49.5762 28.3144Z" />

<path stroke-width="0.2" d="M51.6074 34.353L51.9706 34.2334L52.2895 34.4687L52.2984 34.8177L51.978 35.0713L51.574 34.9154L51.4909 34.5718L51.6074 34.353Z" />

<path d="M48.3762 21.0272L48.5142 20.3987L48.8046 19.9776L49.5244 19.569L50.0693 19.5397L50.5296 19.677L51.2191 20.359L51.3762 21.0272" />

<path d="M53.4074 34.5268L53.4645 35.2563L53.3364 35.6573L52.8075 36.2598L51.9734 36.505L51.2909 36.3344L50.8128 35.9402L50.5639 35.4833" />

<path d="M3.5 44.5154L3.65655 45.4719" />

<path stroke="black" d="M3.5 37.0544L3.5 44.5154" />

<path stroke="black" d="M3.65655 45.4719L5.68773 51.5105" />

<path stroke="black" d="M6.5 37.0544L6.5 44.5154L8.53119 50.554" />

<path stroke-width="0.2" d="M4.7 36.7544L4.95959 36.6321L5.31977 36.7756L5.4123 37.1544L5.20471 37.426L4.84948 37.4511L4.58645 37.1491L4.7 36.7544Z" />

<path stroke-width="0.2" d="M4.7 44.3416L5.04008 44.2192L5.32039 44.3634L5.39168 44.8046L5.13028 45.0453L4.70199 44.9435L4.57888 44.6931L4.7 44.3416Z" />

<path stroke-width="0.2" d="M6.73119 50.3802L7.03284 50.2559L7.32221 50.3714L7.44849 50.7567L7.31752 50.9932L6.85729 51.0672L6.62475 50.8019L6.73119 50.3802Z" />

<path d="M3.5 37.0544L3.73188 36.2532L4.2247 35.7703L4.75964 35.5738L5.46341 35.6278L6.01974 35.9544L6.3729 36.4501L6.5 37.0544" />

<path d="M8.53119 50.554L8.55145 51.4454L8.29113 51.9562L7.44658 52.4939L6.91856 52.5201L6.4555 52.3822L5.89919 51.9184L5.68773 51.5105" />

<path d="M14.719 42.8547L15.0525 44.2294L16.0718 45.362" />

<path stroke="black" d="M14.719 37.0544L14.719 42.8547" />

<path stroke="black" d="M16.0718 45.362L20.8438 48.4971" />

<path stroke="black" d="M17.719 37.0544L17.719 42.8547L22.4911 45.9898" />

<path stroke-width="0.2" d="M15.919 36.7544L16.239 36.6306L16.5117 36.7473L16.6433 37.0481L16.3841 37.4453L16.1487 37.4728L15.9292 37.3643L15.7966 37.015L15.919 36.7544Z" />

<path stroke-width="0.2" d="M15.919 43.1255L16.236 43.0016L16.5938 43.2266L16.6268 43.5426L16.3605 43.8255L16.0952 43.8313L15.7971 43.4699L15.919 43.1255Z" />

<path stroke-width="0.2" d="M20.6911 46.2606L21.1641 46.1732L21.3918 46.4211L21.2877 46.8639L20.8427 46.9581L20.5798 46.6646L20.6911 46.2606Z" />

<path d="M14.719 37.0544L14.8874 36.3639L15.3815 35.81L16.1541 35.5558L16.8454 35.6915L17.5268 36.3198L17.719 37.0544" />

<path d="M22.4911 45.9898L22.9359 46.4428L23.1675 47.2497L22.8602 48.1531L22.5657 48.4448L21.7617 48.7405L20.8438 48.4971" />

<path d="M25.9381 42.8547L26.3466 44.3661L27.2908 45.362" />

<path stroke="black" d="M25.9381 37.0544L25.9381 42.8547" />

<path stroke="black" d="M27.2908 45.362L32.0629 48.4971" />

<path stroke="black" d="M28.9381 37.0544L28.9381 42.8547L33.7101 45.9898" />

<path stroke-width="0.2" d="M27.1381 36.7544L27.3867 36.6333L27.7525 36.7695L27.8572 36.9887L27.732 37.3604L27.4666 37.4777L27.094 37.3026L27.0577 36.8665L27.1381 36.7544Z" />

<path stroke-width="0.2" d="M27.1381 43.1255L27.5464 43.0153L27.8602 43.3827L27.6603 43.7869L27.1962 43.774L27.0175 43.3696L27.1381 43.1255Z" />

<path stroke-width="0.2" d="M31.9101 46.2606L32.259 46.1392L32.5654 46.3287L32.5327 46.8361L32.221 46.9847L31.8182 46.7232L31.8245 46.3838L31.9101 46.2606Z" />

<path d="M25.9381 37.0544L26.126 36.3274L26.608 35.805L27.1166 35.5893L27.8753 35.6195L28.4933 35.9883L28.8704 36.6089L28.9381 37.0544" />

<path d="M33.7101 45.9898L34.2504 46.6191L34.3856 47.2948L34.0903 48.1384L33.8017 48.4319L33.1936 48.7117L32.6466 48.7241L32.0629 48.4971" />

<path d="M37.1571 42.341L37.4123 43.5518L38.1675 44.5863" />

<path stroke="black" d="M37.1571 37.0544L37.1571 42.341" />

<path stroke="black" d="M38.1675 44.5863L41.583 47.6129" />

<path stroke="black" d="M40.1571 37.0544L40.1571 42.341L43.5727 45.3676" />

<path stroke-width="0.2" d="M38.3571 36.7544L38.8156 36.6609L39.0366 36.8648L39.0601 37.1871L38.7806 37.4603L38.4256 37.4099L38.2659 37.2186L38.3571 36.7544Z" />

<path stroke-width="0.2" d="M38.3571 42.4642L38.7446 42.349L39.053 42.6117L38.9944 43.0216L38.7311 43.1819L38.3603 43.0673L38.2353 42.8092L38.3571 42.4642Z" />

<path stroke-width="0.2" d="M41.7727 45.4908L42.0754 45.3665L42.3335 45.4561L42.4959 45.8203L42.2162 46.19L41.7225 46.0303L41.6484 45.7854L41.7727 45.4908Z" />

<path d="M37.1571 37.0544L37.4882 36.1144L38.0497 35.6829L38.7745 35.559L39.5094 35.82L39.9704 36.3297L40.1571 37.0544" />

<path d="M43.5727 45.3676L44.0365 46.1407L44.0401 46.8248L43.6439 47.5455L42.8571 47.964L41.9162 47.8364L41.583 47.6129" />

<path d="M48.3762 42.341L48.7818 43.8474L49.3865 44.5863" />

<path stroke="black" d="M48.3762 37.0544L48.3762 42.341" />

<path stroke="black" d="M49.3865 44.5863L52.8021 47.6129" />

<path stroke="black" d="M51.3762 37.0544L51.3762 42.341L54.7917 45.3676" />

<path stroke-width="0.2" d="M49.5762 36.7544L49.9936 36.6467L50.2938 36.9796L50.2672 37.219L49.7492 37.4592L49.452 37.0468L49.5762 36.7544Z" />

<path stroke-width="0.2" d="M49.5762 42.4642L49.7508 42.3589L50.1462 42.4369L50.2996 42.7372L49.9968 43.1709L49.5652 43.0527L49.496 42.5759L49.5762 42.4642Z" />

<path stroke-width="0.2" d="M52.9917 45.4908L53.2744 45.3669L53.485 45.4131L53.6915 45.6489L53.6233 46.0555L53.2774 46.2148L52.9526 46.0458L52.9213 45.5839L52.9917 45.4908Z" />

<path d="M48.3762 37.0544L48.6513 36.1886L49.2705 35.6821L49.9238 35.5552L50.5769 35.7281L51.2229 36.3939L51.3762 37.0544" />

<path d="M54.7917 45.3676L55.215 46.0015L55.2865 46.6663L55.0149 47.3657L54.6588 47.7179L53.9621 47.9811L53.0283 47.7784L52.8021 47.6129" />

<path d="M3.5 57.5982L3.52325 57.971" />

<path stroke="black" d="M3.5 53.0816L3.5 57.5982" />

<path stroke="black" d="M3.52325 57.971L4.12444 62.7715" />

<path stroke="black" d="M6.5 53.0816L6.5 57.5982L7.10119 62.3987" />

<path stroke-width="0.2" d="M4.7 52.7816L5.18879 52.7017L5.41959 53.0188L5.2373 53.4333L4.83365 53.4719L4.59671 53.2134L4.7 52.7816Z" />

<path stroke-width="0.2" d="M4.7 57.3452L5.07862 57.2283L5.39865 57.5L5.35998 57.8697L4.94856 58.0663L4.62353 57.8408L4.7 57.3452Z" />

<path stroke-width="0.2" d="M5.30119 62.1457L5.58426 62.0217L5.92902 62.1763L6.02147 62.5036L5.84395 62.7936L5.53335 62.8645L5.22363 62.6392L5.30119 62.1457Z" />

<path d="M3.5 53.0816L3.60968 52.5186L3.92291 52.0376L4.76286 51.6005L5.31651 51.6154L6.02124 51.983L6.42489 52.6129L6.5 53.0816" />

<path d="M7.10119 62.3987L7.0472 63.0239L6.73511 63.5803L6.13981 63.9895L5.3585 64.0634L4.89509 63.9022L4.43786 63.5175L4.12444 62.7715" />

<path d="M14.719 57.5982L14.7423 57.971" />

<path stroke="black" d="M14.719 53.0816L14.719 57.5982" />

<path stroke="black" d="M14.7423 57.971L15.3435 62.7715" />

<path stroke="black" d="M17.719 53.0816L17.719 57.5982L18.3202 62.3987" />

<path stroke-width="0.2" d="M15.919 52.7816L16.2929 52.6638L16.6047 52.9049L16.5727 53.3159L16.2137 53.5058L15.8726 53.3265L15.8037 52.9949L15.919 52.7816Z" />

<path stroke-width="0.2" d="M15.919 57.3452L16.403 57.2629L16.641 57.6011L16.548 57.9131L16.244 58.0687L15.8804 57.9007L15.8012 57.5714L15.919 57.3452Z" />

<path stroke-width="0.2" d="M16.5202 62.1456L16.8575 62.023L17.1521 62.1813L17.2407 62.502L17.0471 62.8042L16.6346 62.8272L16.3998 62.5024L16.5202 62.1456Z" />

<path d="M14.719 53.0816L15.0435 52.1498L15.6776 51.6827L16.1473 51.5833L16.8924 51.7413L17.4355 52.2039L17.7031 52.8632L17.719 53.0816" />

<path d="M18.3202 62.3987L18.1273 63.3412L17.5049 63.9256L16.6568 64.0748L16.0005 63.8336L15.3876 62.9902L15.3435 62.7715" />

<path d="M25.9381 57.6646L26.4573 59.3515" />

<path stroke="black" d="M25.9381 53.0816L25.9381 57.6646" />

<path stroke="black" d="M26.4573 59.3515L30.2904 64.9888" />

<path stroke="black" d="M28.9381 53.0816L28.9381 57.6646L32.7713 63.3019" />

<path stroke-width="0.2" d="M27.1381 52.7816L27.5223 52.6658L27.8486 52.9745L27.8261 53.2532L27.6105 53.4693L27.281 53.4757L27.0385 53.2242L27.0605 52.8881L27.1381 52.7816Z" />

<path stroke-width="0.2" d="M27.1381 57.6196L27.6031 57.5287L27.8537 57.8345L27.7906 58.1557L27.454 58.3435L27.1405 58.222L27.0447 57.7606L27.1381 57.6196Z" />

<path stroke-width="0.2" d="M30.9713 63.2569L31.3108 63.1345L31.5841 63.2703L31.6954 63.5451L31.5327 63.891L31.0719 63.9314L30.8743 63.7068L30.8933 63.3641L30.9713 63.2569Z" />

<path d="M25.9381 53.0816L26.0888 52.4262L26.5409 51.8795L27.1562 51.6083L28.1004 51.7358L28.5884 52.1189L28.9127 52.8066L28.9381 53.0816" />

<path d="M32.7713 63.3019L33.0305 64.115L32.8241 64.9053L32.4314 65.3449L31.3819 65.6379L30.7334 65.4158L30.2904 64.9888" />

<path d="M37.1571 57.6646L37.6763 59.3515" />

<path stroke="black" d="M37.1571 53.0816L37.1571 57.6646" />

<path stroke="black" d="M37.6763 59.3515L41.5095 64.9888" />

<path stroke="black" d="M40.1571 53.0816L40.1571 57.6646L43.9903 63.3019" />

<path stroke-width="0.2" d="M38.3571 52.7816L38.6369 52.6578L39.0206 52.8628L39.0495 53.243L38.7073 53.5029L38.3391 53.3625L38.2423 52.9928L38.3571 52.7816Z" />

<path stroke-width="0.2" d="M38.3571 57.6196L38.6967 57.4972L39.0491 57.7572L39.0022 58.1663L38.7762 58.3268L38.4076 58.2627L38.2421 58.0078L38.3571 57.6196Z" />

<path stroke-width="0.2" d="M42.1903 63.2569L42.594 63.1455L42.881 63.3915L42.8905 63.6978L42.4625 63.9802L42.1082 63.7413L42.0991 63.3925L42.1903 63.2569Z" />

<path d="M37.1571 53.0816L37.3688 52.3133L37.9047 51.784L38.5533 51.5852L39.4762 51.825L39.8857 52.2211L40.1244 52.77L40.1571 53.0816" />

<path d="M43.9903 63.3019L44.2375 63.9533L43.9985 64.9766L43.6164 65.3697L43.0491 65.6152L42.3288 65.585L41.8207 65.3228L41.5095 64.9888" />

</g>

</svg>

